<svg xmlns="http://www.w3.org/2000/svg" width="1200" height="630" viewBox="0 0 1200 630">
  <defs>
    <linearGradient id="bg" x1="0" y1="0" x2="1" y2="1">
      <stop offset="0" stop-color="#0ea5e9"/>
      <stop offset="1" stop-color="#22c55e"/>
    </linearGradient>
  </defs>
  <rect width="1200" height="630" fill="url(#bg)"/>
  <g transform="translate(80,120)" fill="#fff">
    <rect x="0" y="0" width="140" height="140" rx="32" opacity="0.2"/>
    <g transform="translate(24,18)">
      <path d="M70 6c28.7 0 52 23.3 52 52 0 34.7-52 80-52 80S18 92.7 18 58C18 29.3 41.3 6 70 6z" opacity="0.95"/>
      <rect x="56" y="42" width="28" height="28" rx="4"/>
      <rect x="66" y="30" width="8" height="52" rx="4"/>
      <rect x="44" y="52" width="52" height="8" rx="4"/>
    </g>
    <text x="180" y="70" font-family="Inter, system-ui, -apple-system, Segoe UI, Roboto, Helvetica, Arial" font-size="64" font-weight="800">MedMap</text>
    <text x="180" y="130" font-family="Inter, system-ui, -apple-system, Segoe UI, Roboto, Helvetica, Arial" font-size="28" opacity="0.9">Find & Book Doctors Across South Africa</text>
  </g>
</svg>
